<?xml version="1.0" encoding="utf-8"?>
<!-- Generator: Adobe Illustrator 22.0.1, SVG Export Plug-In . SVG Version: 6.00 Build 0)  -->
<svg version="1.1" id="Layer_1" xmlns="http://www.w3.org/2000/svg" xmlns:xlink="http://www.w3.org/1999/xlink" x="0px" y="0px"
	 viewBox="0 0 102.6 78.9" style="enable-background:new 0 0 102.6 78.9;" xml:space="preserve">
<style type="text/css">
	.st0{fill:#33B2B5;}
</style>
<g>
	<path class="st0" d="M83.8,32.2c0.7,2.7,1.1,5.6,1.1,8.6c0,9.1-3.7,17.4-9.7,23.4c-6,6-14.3,9.7-23.4,9.7c-9,0-17.2-3.6-23.2-9.5
		c-0.4,0-0.9,0-1.3,0c-1.4,0-2.8-0.1-4.2-0.2c6.8,8.3,17.2,13.7,28.8,13.7c20.5,0,37.1-16.6,37.1-37.1c0-4.7-0.9-9.3-2.5-13.4
		C85.4,28.9,84.5,30.5,83.8,32.2"/>
	<path class="st0" d="M21.6,54.2c-1.8-4.1-2.9-8.7-2.9-13.4c0-9.1,3.7-17.4,9.7-23.4c6-6,14.3-9.7,23.4-9.7c9.1,0,17.4,3.7,23.4,9.7
		c1.3,1.3,2.5,2.7,3.5,4.2c0.8-1.1,1.7-2.2,2.6-3.2C74.6,9.5,63.9,3.7,51.8,3.7c-20.5,0-37.1,16.6-37.1,37.1c0,4.5,0.8,8.8,2.3,12.8
		C18.5,53.8,20.1,54.1,21.6,54.2"/>
	<path class="st0" d="M47.8,46.8c-0.1-0.2-0.3-0.4-0.4-0.6c-2.2-3.4-3.3-7.5-3.6-11.5c-0.2-1.8-0.3-3.8,0.1-5.6
		c0.9-4.1,6-4.7,7.7-1.1C54.2,33.6,51.1,42,47.8,46.8 M102,11.7l-2-3.5l-2.8,1.6c-0.1,0-0.2,0.1-0.3,0.1
		c-7.9,4.8-14.3,9.3-18.6,17.7c-3.1,6-4.9,12.7-8.7,18.3c-4.8,6.9-13,8.6-19,3.9c2.7-3.7,4.5-8,5.2-12.4c0.8-4.8,0.7-11.7-3.4-15.2
		c-4.3-3.6-10-0.6-11.9,4.1c-2.3,5.7-0.7,13.8,1.8,19.2c0.8,1.8,1.8,3.3,2.9,4.6c-10,10.9-24.2,7.4-37.6,4.5l0-0.1l-3.9-0.8L3,57.7
		L4.7,58c0.1,0,0.2,0.1,0.3,0.1c14.6,3,29.9,7.6,42-4.1c0.4-0.4,0.8-0.8,1.1-1.2c7.4,5.8,18.1,4.8,24.5-4.2
		c4.9-6.9,6.8-15.7,11.4-22.8c3.5-5.5,9-8.8,14.5-12.1l0,0L102,11.7z"/>
</g>
</svg>
