<?xml version="1.0" encoding="utf-8"?>
<!-- Generator: Adobe Illustrator 22.0.1, SVG Export Plug-In . SVG Version: 6.00 Build 0)  -->
<svg version="1.1" id="Layer_1" xmlns="http://www.w3.org/2000/svg" xmlns:xlink="http://www.w3.org/1999/xlink" x="0px" y="0px"
	 viewBox="0 0 205.6 202.9" style="enable-background:new 0 0 205.6 202.9;" xml:space="preserve">
<style type="text/css">
	.st0{fill:#FFFFFF;}
</style>
<g>
	<path class="st0" d="M26.2,3.1c13,0,23.7,10.7,23.6,23.8c0,13.7-11.4,23.9-23.8,23.7C13.4,50.8,2.3,40.2,2.3,26.8
		C2.3,13.7,13.1,3.1,26.2,3.1"/>
	<path class="st0" d="M40,200.4H12.2c-3.6,0-6.5-2.9-6.5-6.5V75.2c0-3.6,2.9-6.5,6.5-6.5H40c3.6,0,6.5,2.9,6.5,6.5v118.7
		C46.5,197.5,43.6,200.4,40,200.4"/>
	<path class="st0" d="M200,110.3c0-24.9-20.1-45-45-45h-7.1c-13.6,0-25.6,6.8-32.8,17.2c-0.8,1.1-1.5,2.3-2.2,3.5
		c-0.2,0-0.4,0-0.4,0V71.4c0-1.5-1.2-2.7-2.7-2.7H75.1c-1.5,0-2.7,1.2-2.7,2.7v126.3c0,1.5,1.2,2.7,2.7,2.7l35.4,0
		c1.5,0,2.7-1.2,2.7-2.7v-73c0-12.6,10.1-23.1,22.7-23.2c6.4-0.1,12.3,2.5,16.5,6.7c4.2,4.2,6.7,9.9,6.7,16.2v73.3
		c0,1.5,1.2,2.7,2.7,2.7l35.5,0c1.5,0,2.7-1.2,2.7-2.7V110.3z"/>
</g>
</svg>
