<?xml version="1.0" encoding="utf-8"?>
<!-- Generator: Adobe Illustrator 22.0.1, SVG Export Plug-In . SVG Version: 6.00 Build 0)  -->
<svg version="1.1" id="Layer_1" xmlns="http://www.w3.org/2000/svg" xmlns:xlink="http://www.w3.org/1999/xlink" x="0px" y="0px"
	 viewBox="0 0 233.6 189.9" style="enable-background:new 0 0 233.6 189.9;" xml:space="preserve">
<style type="text/css">
	.st0{fill:#FFFFFF;}
</style>
<g>
	<path class="st0" d="M4.3,165.6c20.5,13,44.9,20.6,71,20.6c73.3,0,132.8-59.5,132.8-132.8c0-1.8,0-3.6-0.1-5.5
		c2.6-2.1,19.1-15.2,23.1-23.7c0,0-13.3,5.5-26.4,6.8h-0.1l0.1,0c1.2-0.8,18-12.2,20.3-25.9c0,0-9.4,5-22.6,9.4
		c-2.2,0.7-4.5,1.4-6.8,2.1c-8.5-9.1-20.6-14.7-34-14.7c-25.7,0-46.6,20.9-46.6,46.6c0,3.6,0.4,7.2,1.2,10.5
		c-3.6-0.1-58.4-3.2-95.6-48.4c0,0-22.3,30.4,13.3,61.7c0,0-10.8-0.4-20.1-6c0,0-3.4,36.8,36.8,46.3c0,0-7.9,3-20.5,0.9
		c0,0,7.1,29.8,42.8,32.6C72.7,146.1,44.4,171.6,4.3,165.6L4.3,165.6z"/>
</g>
</svg>
